<?xml version="1.0" encoding="utf-8"?>
<!-- Generator: Adobe Illustrator 25.4.1, SVG Export Plug-In . SVG Version: 6.00 Build 0)  -->
<svg version="1.1" id="Layer_1" xmlns="http://www.w3.org/2000/svg" xmlns:xlink="http://www.w3.org/1999/xlink" x="0px" y="0px"
	 viewBox="0 0 1920 1080" style="enable-background:new 0 0 1920 1080;" xml:space="preserve">
<style type="text/css">
	.st0{fill:#1A76BB;}
	.st1{fill:#8EC443;}
	.st2{fill:#8EC541;}
	.st3{font-family:'Almarai-Bold';}
	.st4{font-size:76.2681px;}
</style>
<g>
	<path class="st0" d="M1077,170.6c-116.7,0-215.2,78.2-245.9,185.1L661.5,181.1c-8.4-8.7-21.3-11.4-32.5-6.8
		c-11.2,4.5-18.5,15.4-18.5,27.5v480.3h59.4V275l151.4,156h59.6c0-1.5-0.1-3.1-0.1-4.6c0-108.3,87.8-196.2,196.2-196.2
		s196.2,87.8,196.2,196.2c0,108.3-87.8,196.2-196.2,196.2c-82.6,0-153.3-51.1-182.2-123.4h-63c31.3,105.8,129.3,183,245.3,183
		c141.3,0,255.8-114.5,255.8-255.8S1218.3,170.6,1077,170.6"/>
	<g>
		<path class="st1" d="M1086.4,416.9c-2,0-3.6,0.7-5,2.1c-1.3,1.4-2,3-2,5c0,1.9,0.7,3.5,2,4.9c1.3,1.4,3,2.1,5,2.1
			c1.9,0,3.5-0.7,4.9-2.1c1.4-1.4,2.1-3,2.1-4.9c0-2-0.7-3.6-2.1-5C1090,417.6,1088.3,416.9,1086.4,416.9"/>
		<path class="st1" d="M1070.4,416.9c-2,0-3.6,0.7-5,2.1c-1.3,1.4-2,3-2,5c0,1.9,0.7,3.5,2,4.9c1.3,1.4,3,2.1,5,2.1
			c1.9,0,3.5-0.7,4.9-2.1c1.4-1.4,2.1-3,2.1-4.9c0-2-0.7-3.6-2.1-5C1074,417.6,1072.3,416.9,1070.4,416.9"/>
		<path class="st1" d="M1081.9,412.8c3.5,0,6.3-1.3,8.6-4c1.7-2.1,2.6-4.4,2.6-7.1v-30h-13.8V400c0,0.4-0.2,0.7-0.5,1
			c-0.2,0.2-0.5,0.3-0.9,0.3h-14.1h-0.6h-15.3h-0.6H1032h-0.6h-15.3h-0.6h-15.3h-0.6h-15.3h-0.6h-15.2h-0.7h-2.6
			c-0.5,0-0.9-0.2-1.1-0.6l-0.1-0.1c-0.1-0.2-0.1-0.4-0.1-0.5v-51.2h-13.8v52.9c0,3.1,1.1,5.7,3.4,8c2.2,2.1,4.8,3.1,7.7,3.1h6.5
			h0.7h15.2h0.6h15.3h0.6h15.3h0.6h15.3h0.6h15.3h0.6h15.3h0.6H1081.9z"/>
		<polygon class="st1" points="1119.3,348.8 1105.6,348.8 1105.6,415.1 1112.4,415.1 1119.3,415.1 		"/>
		<path class="st1" d="M1145,366c1.9,0,3.5-0.7,4.9-2.1c1.4-1.4,2.1-3,2.1-4.9c0-2-0.7-3.6-2.1-5c-1.4-1.3-3-2-4.9-2
			c-2,0-3.6,0.7-5,2.1c-1.4,1.4-2.1,3-2.1,4.9c0,1.9,0.7,3.5,2.1,4.9C1141.3,365.3,1143,366,1145,366"/>
		<path class="st1" d="M1203.8,374.5c-3.5-2.5-7.7-3.8-12.7-3.8c-5.8,0-10.4,1.4-13.8,4.3c-3.7,3.2-5.5,7.3-5.5,12.3V400
			c0,0.3-0.1,0.6-0.4,0.9c-0.2,0.2-0.6,0.4-1,0.4h-14.1h-0.6h-3.8v-29.6H1138v36.1c0,5.2-1.3,9-3.8,11.4c-2.4,2.3-6,3.4-10.8,3.5
			c-1.2,0-2.6-0.1-4.1-0.4c-0.5-0.1-0.8-0.1-1-0.2v10.4c0,0.3,0.3,0.6,0.6,0.7l4,0.6c1.8,0.2,3.3,0.2,4,0.2c6.1,0,11.3-1.6,15.8-4.9
			c5.4-3.9,8.4-9.4,9-16.3h4h0.6h18.1c2.7,0,5.1-0.9,7.2-2.7c2.8,3.6,6.6,5.4,11.4,5.4c5.6,0,10.1-2.3,13.5-6.8
			c3.3-4.6,5-10.3,5-17.2C1211.6,383.9,1209,378.2,1203.8,374.5 M1196,400.8c-1.3,2-3,3-5.2,3c-2.1,0-3.9-0.9-5.3-2.6v-13.9
			c0-1.4,0.4-2.6,1.2-3.7c1-1.1,2.3-1.6,3.8-1.6c2.3,0,4.1,0.8,5.4,2.5c1.4,1.8,2.1,4.6,2.1,8.1C1198,396.1,1197.3,398.8,1196,400.8
			"/>
	</g>
	<g>
		<path class="st1" d="M980.4,456.7c1.8,0,3.3-0.6,4.5-1.9c1.2-1.2,1.9-2.7,1.9-4.4c0-1.7-0.6-3.2-1.9-4.4c-1.2-1.2-2.7-1.9-4.5-1.9
			c-1.7,0-3.2,0.6-4.4,1.8c-1.2,1.2-1.8,2.7-1.8,4.5c0,1.7,0.6,3.2,1.8,4.4C977.2,456,978.7,456.7,980.4,456.7"/>
		<path class="st1" d="M965.9,456.7c1.8,0,3.3-0.6,4.5-1.9c1.2-1.2,1.9-2.7,1.9-4.4c0-1.7-0.6-3.2-1.9-4.4c-1.2-1.2-2.7-1.9-4.5-1.9
			c-1.7,0-3.2,0.6-4.4,1.8c-1.2,1.2-1.9,2.7-1.9,4.5c0,1.7,0.6,3.2,1.9,4.4C962.7,456,964.2,456.7,965.9,456.7"/>
		<path class="st1" d="M1010.8,502.7c-1.7,0-3.2,0.6-4.4,1.9c-1.2,1.2-1.9,2.7-1.9,4.5c0,1.7,0.6,3.2,1.9,4.4
			c1.2,1.2,2.7,1.9,4.4,1.9c1.8,0,3.3-0.6,4.5-1.9c1.2-1.2,1.9-2.7,1.9-4.4c0-1.8-0.6-3.3-1.9-4.5
			C1014.1,503.3,1012.6,502.7,1010.8,502.7"/>
		<path class="st1" d="M1025.3,502.7c-1.7,0-3.2,0.6-4.4,1.9c-1.2,1.2-1.8,2.7-1.8,4.5c0,1.7,0.6,3.2,1.8,4.4
			c1.2,1.2,2.7,1.9,4.4,1.9c1.8,0,3.3-0.6,4.5-1.9c1.2-1.2,1.9-2.7,1.9-4.4c0-1.8-0.6-3.3-1.9-4.5
			C1028.5,503.3,1027,502.7,1025.3,502.7"/>
		<path class="st1" d="M1175.1,487.4c0,0.4-0.1,0.7-0.4,0.9c-0.2,0.2-0.5,0.2-0.8,0.2h-12.8h-0.6h-1.9c-0.1-1.5-0.1-2.5-0.1-3.1
			v-4.5c0-5.7-2.1-10.4-6.2-14.1c-4.5-4-10.1-6-16.7-6c-9.3,0-17.4,3.7-24.2,11v-9.9h-12.4v26.7H1085h-0.6h-1.9
			c-0.1-0.3-0.1-0.5-0.1-0.7v-7.1c0-5.4-2-10-6.1-13.8c-4.4-4-9.8-6.1-16.2-6.1c-4.3,0-9,0.8-14.1,2.3v9.9c4.4-1.1,8.1-1.7,11.2-1.7
			c3.7,0,6.7,1,9.2,3s3.7,4.6,3.7,7.6v5.3c0,0.8-0.4,1.1-1.1,1.1h-33h-0.6h-3.4c-0.1-0.3-0.1-0.5-0.1-0.7v-26h-12.4V487
			c0,0.5-0.1,0.9-0.4,1.1c-0.3,0.3-0.7,0.5-1.2,0.5h-12.4h-0.5h-13.9h-0.6h-2.2c-0.4,0-0.8-0.1-1-0.3c-0.2-0.2-0.3-0.5-0.3-0.8
			v-27.8h-6.2l-3.3,2.6c-2.7-1.1-5.4-1.7-8.2-1.7c-5.1,0-9.3,1.8-12.7,5.2c-3.8,3.9-5.7,8.8-5.7,14.7c0,4.9,1.2,9,3.7,12.5
			c3.1,4.5,7.3,6.7,12.7,6.7h0.2h0.1c3.7,0,6.9-1.3,9.5-4c2.3,2.2,4.8,3.2,7.5,3.2h5.8h0.6h13.9h0.5h16.4c3.2,0,5.8-1.2,7.8-3.7h0.2
			l3.6,3.7h1.9h0.6h36.5c3.2,0,5.8-1.2,7.8-3.7h0.2l3,3.7h1h0.6h63.5c3.2,0,5.8-1.2,7.8-3.7h0.2l3.1,3.7h1h0.6h16.3
			c3.2,0,5.8-1.2,7.8-3.6c1.5-1.9,2.3-4,2.3-6.4v-47.8h-12.4V487.4z M974.3,489.3c-1.2,0.3-2.3,0.4-3.2,0.4c-2.4,0-4.3-0.9-5.8-2.6
			c-1.5-1.7-2.2-3.9-2.2-6.6c0-2.9,0.7-5.1,2-6.7c1.3-1.6,3.2-2.4,5.6-2.4c1.1,0,2.3,0.2,3.6,0.5V489.3z M1146.1,487.4
			c0,0.8-0.4,1.1-1.2,1.1h-33.6c0.7-1.2,1.8-2.9,3.3-5.1c0.8-1.1,1.4-2,1.7-2.5c5.4-6.4,11.3-9.5,17.8-9.5c3,0,5.6,0.8,7.8,2.5
			c2.8,2,4.2,4.8,4.2,8.3V487.4z"/>
		<polygon class="st1" points="1198.7,441.1 1198.7,501 1204.8,501 1211.1,495.9 1211.1,441.1 		"/>
	</g>
	<!-- <text transform="matrix(1 0 0 1 587.2339 780.8672)" class="st2 st3 st4">ةزيمتملا ةيحصلا ةياعرلل</text>
	<text transform="matrix(0.9318 0 0 1 591.4287 876.8154)" class="st2 st3 st4">premium medical care</text> -->
</g>
</svg>
